<svg width="200" height="150" viewBox="0 0 800 600" fill="none" xmlns="http://www.w3.org/2000/svg" data-reactroot="">
<path d="M454.448 511.829H383.531C377.699 511.829 372.971 507.101 372.971 501.269V498.992C372.971 493.16 377.699 488.433 383.531 488.433H454.448C460.28 488.433 465.008 493.16 465.008 498.992V501.269C465.008 507.101 460.28 511.829 454.448 511.829Z" fill="#C4B6FF"></path>
<path d="M542.031 470.913H480.491C478.082 470.913 476.129 468.96 476.129 466.551C476.129 464.143 478.082 462.19 480.491 462.19H542.031C544.44 462.19 546.393 464.143 546.393 466.551C546.393 468.96 544.44 470.913 542.031 470.913Z" fill="#C4B6FF"></path>
<path d="M251.938 67.3761V66.4631C251.938 62.4198 255.216 59.1421 259.259 59.1421H342.972C347.016 59.1421 350.293 62.4198 350.293 66.4631V67.3761H251.938Z" fill="#C4B6FF"></path>
<path d="M633.617 536.473C676.247 536.473 710.805 534.534 710.805 532.142C710.805 529.75 676.247 527.811 633.617 527.811C590.987 527.811 556.428 529.75 556.428 532.142C556.428 534.534 590.987 536.473 633.617 536.473Z" fill="#D3D4D4"></path>
<path d="M272.016 379.25H48.2749C42.6003 379.25 38 374.65 38 368.975V162.627C38 156.952 42.6003 152.352 48.2749 152.352H272.016C277.691 152.352 282.291 156.952 282.291 162.627V368.975C282.291 374.65 277.691 379.25 272.016 379.25Z" fill="#7D55FF"></path>
<path d="M138.283 331.957H103.788C99.3464 331.957 95.7455 328.356 95.7455 323.914C95.7455 319.473 99.3464 315.872 103.788 315.872H138.283C142.725 315.872 146.326 319.473 146.326 323.914C146.326 328.356 142.725 331.957 138.283 331.957Z" fill="#C4B6FF"></path>
<path d="M204.685 331.957H170.19C165.748 331.957 162.147 328.356 162.147 323.914C162.147 319.473 165.748 315.872 170.19 315.872H204.685C209.127 315.872 212.728 319.473 212.728 323.914C212.728 328.356 209.127 331.957 204.685 331.957Z" fill="#C4B6FF"></path>
<path d="M411.165 93.9323H315.739C307.663 93.9323 301.116 87.3854 301.116 79.3094V64.1206H425.787V79.3094C425.787 87.3854 419.241 93.9323 411.165 93.9323Z" fill="#C4B6FF"></path>
<path d="M235.872 307.648H227.529C221.282 307.648 216.219 302.584 216.219 296.337V220.604C216.219 214.357 221.282 209.293 227.529 209.293H235.872V307.648Z" fill="#C4B6FF"></path>
<path d="M749.604 145.962C753.275 145.962 756.25 142.987 756.25 139.316C756.25 135.646 753.275 132.67 749.604 132.67C745.934 132.67 742.959 135.646 742.959 139.316C742.959 142.987 745.934 145.962 749.604 145.962Z" fill="#B5CDFB"></path>
<path d="M79.8223 457.598C87.163 457.598 93.1138 451.647 93.1138 444.307C93.1138 436.966 87.163 431.015 79.8223 431.015C72.4816 431.015 66.5308 436.966 66.5308 444.307C66.5308 451.647 72.4816 457.598 79.8223 457.598Z" stroke="#005B9D" stroke-width="2" stroke-miterlimit="10" stroke-linecap="round"></path>
<path d="M513.427 99.6599C524.494 99.7851 533.968 144.325 532.868 180.855C532.524 192.26 531.194 236.437 512.855 241.465C503.893 243.922 494.835 235.944 493.986 235.175C478.588 221.247 484.355 192.247 491.127 160.27C497.152 131.818 503.984 99.5531 513.427 99.6599Z" fill="#B5CDFB"></path>
<path d="M573.783 99.6599C584.85 99.7851 594.324 144.325 593.224 180.855C592.88 192.26 591.55 236.437 573.211 241.465C564.249 243.922 555.191 235.944 554.342 235.175C538.944 221.247 544.711 192.247 551.483 160.27C557.508 131.818 564.34 99.5531 573.783 99.6599Z" fill="#B5CDFB"></path>
<path d="M634.138 99.6599C645.206 99.7851 654.68 144.325 653.58 180.855C653.236 192.26 651.906 236.437 633.567 241.465C624.605 243.922 615.547 235.944 614.697 235.175C599.3 221.247 605.067 192.247 611.838 160.27C617.864 131.818 624.696 99.5531 634.138 99.6599Z" fill="#B5CDFB"></path>
<path d="M694.495 99.6599C705.562 99.7851 715.036 144.325 713.936 180.855C713.592 192.26 712.262 236.437 693.923 241.465C684.961 243.922 675.903 235.944 675.054 235.175C659.656 221.247 665.423 192.247 672.195 160.27C678.22 131.818 685.052 99.5531 694.495 99.6599Z" fill="#B5CDFB"></path>
<path d="M508.581 272.872C507.207 272.872 506.093 271.758 506.093 270.384V235.262C506.093 233.888 507.207 232.773 508.581 232.773C509.955 232.773 511.07 233.888 511.07 235.262V270.384C511.07 271.758 509.955 272.872 508.581 272.872Z" fill="#B5CDFB"></path>
<path d="M568.938 272.872C567.564 272.872 566.449 271.758 566.449 270.384V235.262C566.449 233.888 567.564 232.773 568.938 232.773C570.312 232.773 571.426 233.888 571.426 235.262V270.384C571.426 271.758 570.312 272.872 568.938 272.872Z" fill="#B5CDFB"></path>
<path d="M628.181 272.872C626.807 272.872 625.693 271.758 625.693 270.384V235.262C625.693 233.888 626.807 232.773 628.181 232.773C629.555 232.773 630.67 233.888 630.67 235.262V270.384C630.67 271.758 629.555 272.872 628.181 272.872Z" fill="#B5CDFB"></path>
<path d="M689.65 272.872C688.276 272.872 687.161 271.758 687.161 270.384V235.262C687.161 233.888 688.276 232.773 689.65 232.773C691.024 232.773 692.138 233.888 692.138 235.262V270.384C692.138 271.758 691.024 272.872 689.65 272.872Z" fill="#B5CDFB"></path>
<path d="M681.924 240.375C681.924 240.375 690.009 241.588 697.176 239.97C707.456 237.649 713.329 213.125 709.754 185.076" fill="#B5CDFB"></path>
<path d="M681.924 240.375C681.924 240.375 690.009 241.588 697.176 239.97C707.456 237.649 713.329 213.125 709.754 185.076" stroke="#005B9D" stroke-width="2" stroke-miterlimit="10" stroke-linecap="round"></path>
<path d="M560.731 240.375C560.731 240.375 568.816 241.588 575.983 239.97C586.263 237.649 592.136 213.125 588.561 185.076" fill="#B5CDFB"></path>
<path d="M560.731 240.375C560.731 240.375 568.816 241.588 575.983 239.97C586.263 237.649 592.136 213.125 588.561 185.076" stroke="#005B9D" stroke-width="2" stroke-miterlimit="10" stroke-linecap="round"></path>
<path d="M472.131 269.341C498.496 265.178 511.679 263.097 530.487 263.198C567.874 263.399 566.709 270.747 597.032 270.365C627.495 269.98 629.955 262.547 663.577 261.151C687.473 260.158 752.957 265.343 754.774 275.548C756.15 283.278 709.87 291.506 692.243 296.983C655.061 308.535 641.591 290.643 594.984 289.816C540.416 288.849 525.299 312.782 479.298 300.054C461.691 295.183 440.389 285.17 441.418 278.555C441.808 276.047 445.483 273.548 472.131 269.341Z" fill="#B5CDFB"></path>
<path d="M471.316 536.472H255.587C239.877 536.472 227.142 523.737 227.142 508.027V92.5658C227.142 76.856 239.877 64.1206 255.587 64.1206H471.316C487.026 64.1206 499.762 76.856 499.762 92.5658V508.027C499.762 523.737 487.026 536.472 471.316 536.472Z" stroke="#005B9D" stroke-width="3" stroke-miterlimit="10"></path>
<path d="M474.3 124.951H252.603V444.307H474.3V124.951Z" fill="#C4B6FF" stroke="#78D2EE" stroke-miterlimit="10"></path>
<path d="M343.373 511.829H272.455C266.623 511.829 261.896 507.101 261.896 501.269V498.992C261.896 493.16 266.623 488.433 272.455 488.433H343.373C349.205 488.433 353.932 493.16 353.932 498.992V501.269C353.932 507.101 349.205 511.829 343.373 511.829Z" stroke="#005B9D" stroke-width="2" stroke-miterlimit="10"></path>
<path d="M274.348 294.238L386.449 426.542" stroke="#FFE458" stroke-width="10.0732" stroke-miterlimit="10" stroke-linecap="round"></path>
<path d="M320.051 195.902H293.592C292.482 195.902 291.583 195.002 291.583 193.893C291.583 192.783 299.909 190.222 301.019 190.222H317.974C319.084 190.222 322.06 192.783 322.06 193.893C322.06 195.002 321.16 195.902 320.051 195.902Z" fill="#B5CDFB"></path>
<path d="M318.36 191.883H299.556V188.663C299.556 184.068 303.281 180.343 307.876 180.343H312.188C315.597 180.343 318.36 183.106 318.36 186.515V191.883Z" fill="#B5CDFB"></path>
<path d="M298.688 198.722C300.233 198.722 301.485 197.47 301.485 195.925C301.485 194.38 300.233 193.128 298.688 193.128C297.144 193.128 295.891 194.38 295.891 195.925C295.891 197.47 297.144 198.722 298.688 198.722Z" fill="#B5CDFB"></path>
<path d="M315.178 198.722C316.722 198.722 317.974 197.47 317.974 195.925C317.974 194.38 316.722 193.128 315.178 193.128C313.633 193.128 312.381 194.38 312.381 195.925C312.381 197.47 313.633 198.722 315.178 198.722Z" fill="#B5CDFB"></path>
<path d="M446.506 410.53H420.047C418.937 410.53 418.038 409.631 418.038 408.521C418.038 407.411 426.364 404.851 427.474 404.851H444.43C445.539 404.851 448.515 407.411 448.515 408.521C448.515 409.631 447.616 410.53 446.506 410.53Z" fill="#B5CDFB"></path>
<path d="M444.815 406.512H426.011V403.291C426.011 398.696 429.736 394.971 434.331 394.971H438.643C442.052 394.971 444.815 397.735 444.815 401.144V406.512Z" fill="#B5CDFB"></path>
<path d="M425.143 413.351C426.688 413.351 427.94 412.098 427.94 410.554C427.94 409.009 426.688 407.757 425.143 407.757C423.599 407.757 422.346 409.009 422.346 410.554C422.346 412.098 423.599 413.351 425.143 413.351Z" fill="#B5CDFB"></path>
<path d="M441.633 413.351C443.177 413.351 444.43 412.098 444.43 410.554C444.43 409.009 443.177 407.757 441.633 407.757C440.088 407.757 438.836 409.009 438.836 410.554C438.836 412.098 440.088 413.351 441.633 413.351Z" fill="#B5CDFB"></path>
<path d="M638.643 480.901C671.654 480.901 698.414 454.14 698.414 421.13C698.414 388.119 671.654 361.358 638.643 361.358C605.632 361.358 578.872 388.119 578.872 421.13C578.872 454.14 605.632 480.901 638.643 480.901Z" fill="#C4B6FF"></path>
<path fill-rule="evenodd" clip-rule="evenodd" d="M627.319 382.156H630.319V425.042H655.292V428.042H627.319V382.156Z" fill="#7D55FF"></path>
<path d="M634.232 354.89H623.407V365.715H634.232V354.89Z" fill="#7D55FF"></path>
<path d="M634.232 487.37H623.407V498.195H634.232V487.37Z" fill="#7D55FF"></path>
<path d="M700.472 431.955V421.13H689.647V431.955H700.472Z" fill="#7D55FF"></path>
<path d="M567.992 431.955V421.13H557.167V431.955H567.992Z" fill="#7D55FF"></path>
<path d="M628.819 498.195C668.392 498.195 700.472 466.115 700.472 426.542C700.472 386.97 668.392 354.89 628.819 354.89C589.247 354.89 557.167 386.97 557.167 426.542C557.167 466.115 589.247 498.195 628.819 498.195Z" stroke="#005B9D" stroke-width="3" stroke-miterlimit="10"></path>
<path d="M69.4332 470.333H128.912" stroke="#005B9D" stroke-width="2" stroke-miterlimit="10" stroke-linecap="round"></path>
<path d="M69.4332 478.249H128.912" stroke="#005B9D" stroke-width="2" stroke-miterlimit="10" stroke-linecap="round"></path>
<path d="M69.4332 497.397H128.912" stroke="#005B9D" stroke-width="2" stroke-miterlimit="10" stroke-linecap="round"></path>
<path d="M69.4332 505.312H128.912" stroke="#005B9D" stroke-width="2" stroke-miterlimit="10" stroke-linecap="round"></path>
<path d="M101.296 237.916H82.0816C80.8339 237.916 79.8224 236.904 79.8224 235.657V235.657C79.8224 229.632 84.7063 224.748 90.7309 224.748H92.647C98.6716 224.748 103.556 229.632 103.556 235.657V235.657C103.556 236.904 102.544 237.916 101.296 237.916Z" fill="#C4B6FF"></path>
<path d="M91.6889 222.822C96.006 222.822 99.5056 219.322 99.5056 215.005C99.5056 210.688 96.006 207.188 91.6889 207.188C87.3719 207.188 83.8722 210.688 83.8722 215.005C83.8722 219.322 87.3719 222.822 91.6889 222.822Z" fill="#C4B6FF"></path>
<path d="M446.089 400.821C449.715 400.821 452.655 397.881 452.655 394.255C452.655 390.628 449.715 387.688 446.089 387.688C442.462 387.688 439.522 390.628 439.522 394.255C439.522 397.881 442.462 400.821 446.089 400.821Z" fill="#7D55FF"></path>
<path d="M448.938 398.812H443.239C442.868 398.812 442.568 398.512 442.568 398.142C442.568 396.355 444.017 394.906 445.804 394.906H446.373C448.16 394.906 449.609 396.355 449.609 398.142C449.609 398.512 449.309 398.812 448.938 398.812Z" fill="#C4B6FF"></path>
<path d="M446.089 394.335C447.369 394.335 448.407 393.297 448.407 392.016C448.407 390.735 447.369 389.697 446.089 389.697C444.808 389.697 443.77 390.735 443.77 392.016C443.77 393.297 444.808 394.335 446.089 394.335Z" fill="#C4B6FF"></path>
<path d="M110.819 277.128H73.8667C72.3169 277.128 71.0605 276.699 71.0605 275.149V272.135C71.0605 270.585 82.9138 267.243 84.4636 267.243L107.919 269.196C109.469 269.196 112.317 269.39 112.317 270.94C112.317 270.94 112.369 277.128 110.819 277.128Z" fill="#C4B6FF"></path>
<path d="M106.367 271.051H86.1268C84.9717 271.051 81.7554 270.002 81.7554 268.847L82.4889 267.877C89.2941 261.228 89.1634 260.139 92.8632 259.231C93.4163 259.095 97.2014 258.696 97.7709 258.696H98.3762C103.944 258.696 108.458 263.21 108.458 268.778V268.959C108.458 270.115 107.522 271.051 106.367 271.051Z" fill="#C4B6FF"></path>
<path d="M80.9842 281.067C83.1415 281.067 84.8903 279.318 84.8903 277.161C84.8903 275.003 83.1415 273.254 80.9842 273.254C78.8268 273.254 77.078 275.003 77.078 277.161C77.078 279.318 78.8268 281.067 80.9842 281.067Z" fill="#C4B6FF"></path>
<path d="M104.866 281.067C107.024 281.067 108.772 279.318 108.772 277.161C108.772 275.003 107.024 273.254 104.866 273.254C102.709 273.254 100.96 275.003 100.96 277.161C100.96 279.318 102.709 281.067 104.866 281.067Z" fill="#C4B6FF"></path>
<path d="M121.295 216.593H180.774" stroke="#005B9D" stroke-width="2" stroke-miterlimit="10"></path>
<path d="M121.295 221.923H162.717" stroke="#005B9D" stroke-width="2" stroke-miterlimit="10"></path>
<path d="M121.295 232.585H180.774" stroke="#005B9D" stroke-width="2" stroke-miterlimit="10"></path>
<path d="M121.295 237.916H164.082" stroke="#005B9D" stroke-width="2" stroke-miterlimit="10"></path>
<path d="M60.1973 169.308C61.9978 169.308 63.4575 167.848 63.4575 166.048C63.4575 164.247 61.9978 162.788 60.1973 162.788C58.3967 162.788 56.937 164.247 56.937 166.048C56.937 167.848 58.3967 169.308 60.1973 169.308Z" stroke="#005B9D" stroke-miterlimit="10"></path>
<path d="M72.9104 169.308C74.711 169.308 76.1706 167.848 76.1706 166.048C76.1706 164.247 74.711 162.788 72.9104 162.788C71.1098 162.788 69.6501 164.247 69.6501 166.048C69.6501 167.848 71.1098 169.308 72.9104 169.308Z" fill="#C4B6FF"></path>
<path d="M85.6235 169.308C87.4241 169.308 88.8838 167.848 88.8838 166.048C88.8838 164.247 87.4241 162.788 85.6235 162.788C83.8229 162.788 82.3633 164.247 82.3633 166.048C82.3633 167.848 83.8229 169.308 85.6235 169.308Z" fill="#C4B6FF"></path>
<path d="M71.2067 180.343H245.021" stroke="#005B9D" stroke-width="2" stroke-miterlimit="10" stroke-linecap="round"></path>
<path d="M256.259 462.761C258.404 462.761 260.142 461.022 260.142 458.878C260.142 456.734 258.404 454.995 256.259 454.995C254.115 454.995 252.376 456.734 252.376 458.878C252.376 461.022 254.115 462.761 256.259 462.761Z" fill="#C4B6FF"></path>
<path d="M268.16 462.761C270.304 462.761 272.042 461.022 272.042 458.878C272.042 456.734 270.304 454.995 268.16 454.995C266.015 454.995 264.277 456.734 264.277 458.878C264.277 461.022 266.015 462.761 268.16 462.761Z" fill="#09213E"></path>
<path d="M280.06 462.761C282.205 462.761 283.943 461.022 283.943 458.878C283.943 456.734 282.205 454.995 280.06 454.995C277.916 454.995 276.177 456.734 276.177 458.878C276.177 461.022 277.916 462.761 280.06 462.761Z" fill="#C4B6FF"></path>
<path d="M105.766 100.586H161.112C161.112 100.586 163.717 82.7717 151.954 82.7778C140.191 82.7838 136.106 91.6821 136.106 91.6821C136.106 91.6821 134.661 68.4066 109.325 74.1248C83.9888 79.843 63.2775 100.586 63.2775 100.586H105.766Z" fill="#C4B6FF"></path>
<path d="M121.295 275.736H171.76" stroke="#005B9D" stroke-width="2" stroke-miterlimit="10"></path>
<path d="M121.295 281.066H171.76" stroke="#005B9D" stroke-width="2" stroke-miterlimit="10"></path>
<path d="M128.401 263.247C128.401 264.658 127.258 265.802 125.847 265.802C124.436 265.802 123.292 264.658 123.292 263.247C123.292 261.836 124.436 260.692 125.847 260.692C127.258 260.692 128.401 261.836 128.401 263.247Z" fill="#C4B6FF" stroke="#005B9D" stroke-width="2"></path>
<path d="M138.742 263.247C138.742 264.658 137.598 265.802 136.187 265.802C134.776 265.802 133.632 264.658 133.632 263.247C133.632 261.836 134.776 260.692 136.187 260.692C137.598 260.692 138.742 261.836 138.742 263.247Z" fill="#C4B6FF" stroke="#005B9D" stroke-width="2"></path>
<path d="M149.082 263.247C149.082 264.658 147.939 265.802 146.528 265.802C145.117 265.802 143.973 264.658 143.973 263.247C143.973 261.836 145.117 260.692 146.528 260.692C147.939 260.692 149.082 261.836 149.082 263.247Z" fill="#C4B6FF" stroke="#005B9D" stroke-width="2"></path>
<path d="M159.423 263.247C159.423 264.658 158.279 265.802 156.868 265.802C155.457 265.802 154.313 264.658 154.313 263.247C154.313 261.836 155.457 260.692 156.868 260.692C158.279 260.692 159.423 261.836 159.423 263.247Z" fill="#C4B6FF" stroke="#005B9D" stroke-width="2"></path>
<path d="M169.763 263.247C169.763 264.658 168.619 265.802 167.208 265.802C165.797 265.802 164.654 264.658 164.654 263.247C164.654 261.836 165.797 260.692 167.208 260.692C168.619 260.692 169.763 261.836 169.763 263.247Z" fill="#C4B6FF" stroke="#005B9D" stroke-width="2"></path>
<path d="M187.438 323.914V328.914" stroke="#005B9D" stroke-width="2" stroke-miterlimit="10"></path>
<path d="M187.438 338.884V544.988C187.438 554.379 195.051 561.993 204.443 561.993H401.984C411.376 561.993 418.989 554.379 418.989 544.988V508.522" stroke="#005B9D" stroke-width="2" stroke-miterlimit="10" stroke-dasharray="9.97 9.97"></path>
<path d="M418.989 503.537V498.537" stroke="#005B9D" stroke-width="2" stroke-miterlimit="10"></path>
<path d="M187.438 327.048C189.702 327.048 191.537 325.213 191.537 322.949C191.537 320.685 189.702 318.85 187.438 318.85C185.174 318.85 183.338 320.685 183.338 322.949C183.338 325.213 185.174 327.048 187.438 327.048Z" fill="#7D55FF"></path>
<path d="M418.989 504.23C421.253 504.23 423.089 502.395 423.089 500.131C423.089 497.867 421.253 496.031 418.989 496.031C416.725 496.031 414.89 497.867 414.89 500.131C414.89 502.395 416.725 504.23 418.989 504.23Z" fill="#7D55FF"></path>
<path d="M537.608 327.68C537.608 332.439 529.608 332.439 529.608 337.198C529.608 341.958 537.608 341.958 537.608 346.718C537.608 351.478 529.608 351.478 529.608 356.239C529.608 360.999 537.608 360.999 537.608 365.759C537.608 370.519 529.608 370.519 529.608 375.279C529.608 380.04 537.608 380.04 537.608 384.801C537.608 389.562 529.608 389.562 529.608 394.324C529.608 399.084 537.608 399.084 537.608 403.845C537.608 408.606 529.608 408.606 529.608 413.367C529.608 418.127 537.608 418.127 537.608 422.887C537.608 427.647 529.608 427.647 529.608 432.407C529.608 437.168 537.608 437.168 537.608 441.929C537.608 446.692 529.608 446.692 529.608 451.455C529.608 456.216 537.608 456.216 537.608 460.977C537.608 465.742 529.608 465.742 529.608 470.506C529.608 475.271 537.608 475.271 537.608 480.035" stroke="#005B9D" stroke-width="2" stroke-miterlimit="10" stroke-linecap="round"></path>
<path d="M211.11 122.505C211.11 128.724 203.11 128.724 203.11 134.944C203.11 141.161 211.11 141.161 211.11 147.379C211.11 153.598 203.11 153.598 203.11 159.817C203.11 166.038 211.11 166.038 211.11 172.259C211.11 178.478 203.11 178.478 203.11 184.697C203.11 190.921 211.11 190.921 211.11 197.144C211.11 203.368 203.11 203.368 203.11 209.591" stroke="#005B9D" stroke-width="2" stroke-miterlimit="10" stroke-linecap="round"></path>
<path d="M532.461 60.1206C537.219 60.1206 537.219 68.1206 541.978 68.1206C546.738 68.1206 546.738 60.1206 551.498 60.1206C556.259 60.1206 556.259 68.1206 561.02 68.1206C565.78 68.1206 565.78 60.1206 570.54 60.1206C575.3 60.1206 575.3 68.1206 580.06 68.1206C584.821 68.1206 584.821 60.1206 589.581 60.1206C594.343 60.1206 594.343 68.1206 599.104 68.1206C603.865 68.1206 603.865 60.1206 608.625 60.1206C613.387 60.1206 613.387 68.1206 618.148 68.1206C622.908 68.1206 622.908 60.1206 627.667 60.1206C632.427 60.1206 632.427 68.1206 637.187 68.1206C641.948 68.1206 641.948 60.1206 646.709 60.1206C651.472 60.1206 651.472 68.1206 656.235 68.1206C660.996 68.1206 660.996 60.1206 665.758 60.1206C670.522 60.1206 670.522 68.1206 675.287 68.1206C680.051 68.1206 680.051 60.1206 684.816 60.1206" stroke="#005B9D" stroke-width="2" stroke-miterlimit="10" stroke-linecap="round"></path>
<path d="M689.277 76.9021H753.395C753.395 76.9021 756.414 56.2637 742.786 56.2707C729.158 56.2777 724.426 66.5864 724.426 66.5864C724.426 66.5864 722.752 39.6216 693.4 46.2462C664.048 52.8708 640.426 76.9021 640.426 76.9021H689.277Z" fill="#C4B6FF"></path>
<path d="M596.908 143.904L600.305 139.804C601.549 138.304 603.814 138.198 605.192 139.576L608.24 142.624L613.352 138.996C614.882 137.91 617.009 138.313 618.035 139.884L620.368 143.454" stroke="#005B9D" stroke-width="2" stroke-miterlimit="10" stroke-linecap="round"></path>
<path d="M175.708 55.6109L179.105 51.5114C180.348 50.0107 182.613 49.9048 183.991 51.2829L187.039 54.3312L192.151 50.7034C193.682 49.6173 195.808 50.0205 196.835 51.5913L199.168 55.1606" stroke="#005B9D" stroke-width="2" stroke-miterlimit="10" stroke-linecap="round"></path>
<path d="M761.71 316.649H692.138V323.64H761.71V316.649Z" fill="#C4B6FF"></path>
<path d="M761.71 331.522H692.138V338.513H761.71V331.522Z" fill="#C4B6FF"></path>
<path d="M761.71 346.396H692.138V353.387H761.71V346.396Z" fill="#C4B6FF"></path>
<path d="M761.71 509.507H692.138V516.498H761.71V509.507Z" fill="#C4B6FF"></path>
<path d="M756.601 212.944V477.482" stroke="#005B9D" stroke-width="2" stroke-miterlimit="10" stroke-linecap="round"></path>
<path d="M747.479 281.066V525.12" stroke="#005B9D" stroke-width="2" stroke-miterlimit="10" stroke-dasharray="10 10"></path>
<path d="M463 191.608H432.602C431.327 191.608 430.294 191.254 430.294 189.98V187.5C430.294 186.225 440.044 183.476 441.319 183.476L460.614 185.083C461.889 185.083 464.232 185.242 464.232 186.517C464.232 186.517 464.275 191.608 463 191.608Z" fill="#B5CDFB"></path>
<path d="M459.208 186.991H441.304C440.282 186.991 439.454 186.163 439.454 185.141V185.141C444.081 179.313 450.463 177.381 450.863 177.378H452.116C457.054 177.378 461.057 177.735 461.057 182.674V185.141C461.057 186.163 460.229 186.991 459.208 186.991Z" fill="#B5CDFB"></path>
<path d="M438.457 194.847C440.232 194.847 441.67 193.409 441.67 191.634C441.67 189.86 440.232 188.421 438.457 188.421C436.682 188.421 435.244 189.86 435.244 191.634C435.244 193.409 436.682 194.847 438.457 194.847Z" fill="#B5CDFB"></path>
<path d="M458.103 194.847C459.878 194.847 461.316 193.409 461.316 191.634C461.316 189.86 459.878 188.421 458.103 188.421C456.328 188.421 454.89 189.86 454.89 191.634C454.89 193.409 456.328 194.847 458.103 194.847Z" fill="#B5CDFB"></path>
<path d="M252.603 319.502L361.266 444.307" stroke="#78D2EE" stroke-miterlimit="10"></path>
<path d="M252.531 239.045L431.244 444.307" stroke="#78D2EE" stroke-miterlimit="10"></path>
<path d="M334.519 252.06L474.3 414.14" stroke="#78D2EE" stroke-miterlimit="10"></path>
<path d="M381.327 226.228L474.3 333.012" stroke="#78D2EE" stroke-miterlimit="10"></path>
<path d="M287.711 124.951V279.498" stroke="#78D2EE" stroke-miterlimit="10"></path>
<path d="M334.519 124.951V333.213" stroke="#78D2EE" stroke-miterlimit="10"></path>
<path d="M381.327 124.951V306.335" stroke="#78D2EE" stroke-miterlimit="10"></path>
<path d="M428.135 124.951V280.112" stroke="#78D2EE" stroke-miterlimit="10"></path>
<path d="M252.603 150.342H334.519" stroke="#78D2EE" stroke-miterlimit="10"></path>
<path d="M252.603 174.35H334.519" stroke="#78D2EE" stroke-miterlimit="10"></path>
<path d="M252.603 198.358H334.519" stroke="#78D2EE" stroke-miterlimit="10"></path>
<path d="M335.583 334.435H474.3" stroke="#78D2EE" stroke-miterlimit="10"></path>
<path d="M404.941 414.14H474.3" stroke="#78D2EE" stroke-miterlimit="10"></path>
<path d="M334.519 184.887H381.327" stroke="#78D2EE" stroke-miterlimit="10"></path>
<path d="M474.3 196.213H381.327" stroke="#78D2EE" stroke-miterlimit="10"></path>
<path d="M461.009 181.8C464.084 181.8 466.578 179.307 466.578 176.231C466.578 173.156 464.084 170.663 461.009 170.663C457.933 170.663 455.44 173.156 455.44 176.231C455.44 179.307 457.933 181.8 461.009 181.8Z" fill="#7D55FF"></path>
<path d="M463.426 180.097H458.592C458.278 180.097 458.023 179.842 458.023 179.529C458.023 178.013 459.252 176.784 460.768 176.784H461.25C462.766 176.784 463.994 178.013 463.994 179.529C463.994 179.842 463.74 180.097 463.426 180.097Z" fill="#C4B6FF"></path>
<path d="M461.009 176.299C462.095 176.299 462.975 175.419 462.975 174.333C462.975 173.247 462.095 172.366 461.009 172.366C459.923 172.366 459.042 173.247 459.042 174.333C459.042 175.419 459.923 176.299 461.009 176.299Z" fill="#C4B6FF"></path>
<path d="M373.842 133.723H342.004V161.187H373.842V133.723Z" fill="#7D55FF"></path>
<path d="M420.328 133.723H388.491V161.187H420.328V133.723Z" fill="#7D55FF"></path>
<path d="M385.253 203.421V219.495H403.72V203.421H385.253Z" fill="#7D55FF"></path>
<path d="M385.253 174.267V190.341H403.72V174.267H385.253Z" fill="#7D55FF"></path>
<path d="M326.739 141.932H310.665V173.091H326.739V141.932Z" fill="#7D55FF"></path>
<path d="M423.472 238.646H407.398V246.149H423.472V238.646Z" fill="#7D55FF"></path>
<path d="M423.472 226.87H407.398V234.372H423.472V226.87Z" fill="#7D55FF"></path>
<path d="M423.472 203.421H407.398V210.924H423.472V203.421Z" fill="#7D55FF"></path>
<path d="M324.72 283.152V267.078H293.561V283.152H324.72Z" fill="#7D55FF"></path>
<path d="M318.702 275.115V264.019H299.58V275.115H318.702Z" fill="#7D55FF"></path>
<path d="M305.843 269.567V258.47H302.666V269.567H305.843Z" fill="#7D55FF"></path>
<path d="M343.746 196.957H339.888V203.13H343.746V196.957Z" fill="#7D55FF"></path>
<path d="M350.754 196.957H346.896V203.13H350.754V196.957Z" fill="#7D55FF"></path>
<path d="M343.746 206.771H339.888V212.944H343.746V206.771Z" fill="#7D55FF"></path>
<path d="M350.754 206.771H346.896V212.944H350.754V206.771Z" fill="#7D55FF"></path>
<path d="M343.746 216.586H339.888V222.758H343.746V216.586Z" fill="#7D55FF"></path>
<path d="M350.754 216.586H346.896V222.758H350.754V216.586Z" fill="#7D55FF"></path>
<path d="M264.277 380.699H258.112V390.563H264.277V380.699Z" fill="#7D55FF"></path>
<path d="M277.431 380.699H271.266V390.563H277.431V380.699Z" fill="#7D55FF"></path>
<path d="M264.277 396.383H258.112V406.247H264.277V396.383Z" fill="#7D55FF"></path>
<path d="M277.431 396.383H271.266V406.247H277.431V396.383Z" fill="#7D55FF"></path>
<path d="M264.277 412.067H258.112V421.931H264.277V412.067Z" fill="#7D55FF"></path>
<path d="M277.431 412.067H271.266V421.931H277.431V412.067Z" fill="#7D55FF"></path>
<path d="M372.888 316.341C372.888 321.525 366.188 325.727 357.923 325.727C349.658 325.727 342.958 321.525 342.958 316.341C342.958 311.157 340.56 300.468 348.825 300.468C357.09 300.468 372.888 311.157 372.888 316.341Z" fill="#7D55FF"></path>
<path d="M434.482 352.702C434.482 347.518 441.182 343.315 449.447 343.315C457.712 343.315 464.412 347.518 464.412 352.702C464.412 357.886 466.81 368.575 458.545 368.575C450.28 368.575 434.482 357.886 434.482 352.702Z" fill="#7D55FF"></path>
<path d="M348.729 171.47C348.729 168.878 352.079 166.776 356.211 166.776C360.344 166.776 363.694 168.878 363.694 171.47C363.694 174.062 364.893 179.406 360.76 179.406C356.628 179.406 348.729 174.062 348.729 171.47Z" fill="#7D55FF"></path>
<path d="M458.094 267.078C463.278 267.05 467.517 273.727 467.561 281.992C467.606 290.257 471.383 313.069 466.199 313.097C461.015 313.125 436.911 285.528 436.867 277.263C436.822 268.998 452.91 267.106 458.094 267.078Z" fill="#7D55FF"></path>
<path d="M266.152 141.145C268.274 141.169 270.091 149.708 269.88 156.712C269.814 158.899 269.559 167.369 266.042 168.333C264.324 168.804 262.587 167.275 262.425 167.127C259.473 164.457 260.578 158.897 261.876 152.766C263.032 147.31 264.342 141.124 266.152 141.145Z" fill="#7D55FF"></path>
<path d="M278.237 141.145C280.359 141.169 282.176 149.708 281.965 156.712C281.899 158.899 281.644 167.369 278.128 168.333C276.41 168.804 274.673 167.275 274.51 167.127C271.558 164.457 272.663 158.897 273.962 152.766C275.117 147.31 276.427 141.124 278.237 141.145Z" fill="#7D55FF"></path>
<path d="M265.723 167.145H264.723V173.878H265.723V167.145Z" fill="#7D55FF"></path>
<path d="M277.808 167.145H276.808V173.878H277.808V167.145Z" fill="#7D55FF"></path>
<path d="M344.036 236.762C345.469 236.778 346.695 242.543 346.553 247.271C346.508 248.747 346.336 254.466 343.962 255.116C342.802 255.434 341.63 254.402 341.52 254.302C339.527 252.499 340.273 248.746 341.15 244.607C341.93 240.924 342.814 236.748 344.036 236.762Z" fill="#7D55FF"></path>
<path d="M352.195 236.762C353.627 236.778 354.854 242.543 354.711 247.271C354.667 248.747 354.494 254.466 352.121 255.116C350.961 255.434 349.788 254.402 349.678 254.302C347.686 252.499 348.432 248.746 349.308 244.607C350.088 240.924 350.973 236.748 352.195 236.762Z" fill="#7D55FF"></path>
<path d="M343.909 254.313H342.909V258.859H343.909V254.313Z" fill="#7D55FF"></path>
<path d="M352.068 254.313H351.068V258.859H352.068V254.313Z" fill="#7D55FF"></path>
<path d="M360.924 245.538C362.357 245.554 363.583 251.319 363.44 256.047C363.396 257.523 363.224 263.241 360.85 263.892C359.69 264.21 358.518 263.178 358.408 263.078C356.415 261.275 357.161 257.522 358.038 253.383C358.817 249.7 359.702 245.524 360.924 245.538Z" fill="#7D55FF"></path>
<path d="M369.083 245.538C370.515 245.554 371.741 251.319 371.599 256.047C371.554 257.523 371.382 263.241 369.009 263.892C367.849 264.21 366.676 263.178 366.566 263.078C364.573 261.275 365.32 257.522 366.196 253.383C366.976 249.7 367.86 245.524 369.083 245.538Z" fill="#7D55FF"></path>
<path d="M360.797 263.09H359.797V267.636H360.797V263.09Z" fill="#7D55FF"></path>
<path d="M368.956 263.09H367.956V267.636H368.956V263.09Z" fill="#7D55FF"></path>
<path d="M419.983 291.934C422.392 291.961 424.453 301.655 424.214 309.605C424.139 312.087 423.85 321.701 419.859 322.796C417.908 323.33 415.937 321.594 415.752 321.427C412.401 318.395 413.656 312.084 415.13 305.125C416.441 298.933 417.928 291.911 419.983 291.934Z" fill="#7D55FF"></path>
<path d="M433.701 291.934C436.109 291.961 438.171 301.655 437.932 309.605C437.857 312.087 437.568 321.701 433.576 322.796C431.626 323.33 429.655 321.594 429.47 321.427C426.119 318.395 427.374 312.084 428.848 305.125C430.159 298.933 431.646 291.911 433.701 291.934Z" fill="#7D55FF"></path>
<path d="M419.428 321.445H418.428V329.089H419.428V321.445Z" fill="#7D55FF"></path>
<path d="M433.146 321.445H432.146V329.089H433.146V321.445Z" fill="#7D55FF"></path>
<path d="M407.181 367.051C409.59 367.079 411.652 376.772 411.412 384.722C411.338 387.204 411.048 396.818 407.057 397.913C405.107 398.447 403.135 396.711 402.95 396.544C399.599 393.513 400.854 387.201 402.328 380.242C403.639 374.05 405.126 367.028 407.181 367.051Z" fill="#7D55FF"></path>
<path d="M420.899 367.051C423.308 367.079 425.37 376.772 425.13 384.722C425.056 387.204 424.766 396.818 420.775 397.913C418.824 398.447 416.853 396.711 416.668 396.544C413.317 393.513 414.572 387.201 416.046 380.242C417.357 374.05 418.844 367.028 420.899 367.051Z" fill="#7D55FF"></path>
<path d="M406.627 396.562H405.627V404.206H406.627V396.562Z" fill="#7D55FF"></path>
<path d="M420.344 396.562H419.344V404.206H420.344V396.562Z" fill="#7D55FF"></path>
<path d="M379.814 346.235C381.325 346.252 382.618 352.332 382.468 357.318C382.421 358.875 382.24 364.904 379.736 365.591C378.513 365.926 377.277 364.837 377.161 364.732C375.059 362.831 375.846 358.873 376.771 354.508C377.593 350.625 378.526 346.221 379.814 346.235Z" fill="#7D55FF"></path>
<path d="M388.418 346.235C389.928 346.252 391.222 352.332 391.071 357.318C391.025 358.875 390.843 364.904 388.34 365.591C387.117 365.926 385.88 364.837 385.764 364.732C383.663 362.831 384.45 358.873 385.374 354.508C386.196 350.625 387.129 346.221 388.418 346.235Z" fill="#7D55FF"></path>
<path d="M379.653 364.744H378.653V369.538H379.653V364.744Z" fill="#7D55FF"></path>
<path d="M388.257 364.744H387.257V369.538H388.257V364.744Z" fill="#7D55FF"></path>
<path d="M269.79 321.557C272.835 321.557 275.303 319.088 275.303 316.044C275.303 312.999 272.835 310.53 269.79 310.53C266.745 310.53 264.277 312.999 264.277 316.044C264.277 319.088 266.745 321.557 269.79 321.557Z" fill="#7D55FF"></path>
<path d="M282.944 337.342C285.989 337.342 288.457 334.874 288.457 331.829C288.457 328.784 285.989 326.316 282.944 326.316C279.899 326.316 277.431 328.784 277.431 331.829C277.431 334.874 279.899 337.342 282.944 337.342Z" fill="#7D55FF"></path>
<path d="M296.098 353.128C299.143 353.128 301.611 350.66 301.611 347.615C301.611 344.57 299.143 342.102 296.098 342.102C293.053 342.102 290.585 344.57 290.585 347.615C290.585 350.66 293.053 353.128 296.098 353.128Z" fill="#7D55FF"></path>
<path d="M309.252 368.913C312.297 368.913 314.765 366.445 314.765 363.4C314.765 360.355 312.297 357.887 309.252 357.887C306.207 357.887 303.739 360.355 303.739 363.4C303.739 366.445 306.207 368.913 309.252 368.913Z" fill="#7D55FF"></path>
<path d="M322.406 384.699C325.451 384.699 327.919 382.23 327.919 379.186C327.919 376.141 325.451 373.672 322.406 373.672C319.361 373.672 316.893 376.141 316.893 379.186C316.893 382.23 319.361 384.699 322.406 384.699Z" fill="#7D55FF"></path>
<path d="M335.56 400.484C338.605 400.484 341.073 398.016 341.073 394.971C341.073 391.926 338.605 389.458 335.56 389.458C332.515 389.458 330.047 391.926 330.047 394.971C330.047 398.016 332.515 400.484 335.56 400.484Z" fill="#7D55FF"></path>
<path d="M348.714 416.27C351.759 416.27 354.227 413.801 354.227 410.756C354.227 407.712 351.759 405.243 348.714 405.243C345.669 405.243 343.201 407.712 343.201 410.756C343.201 413.801 345.669 416.27 348.714 416.27Z" fill="#7D55FF"></path>
<path d="M361.868 432.055C364.913 432.055 367.381 429.587 367.381 426.542C367.381 423.497 364.913 421.029 361.868 421.029C358.823 421.029 356.355 423.497 356.355 426.542C356.355 429.587 358.823 432.055 361.868 432.055Z" fill="#7D55FF"></path>
<path d="M310.681 428.972H288.374V437.569H310.681V428.972Z" fill="#7D55FF"></path>
<path d="M468.213 234.144H431.319V245.17H468.213V234.144Z" fill="#7D55FF"></path>
<path d="M468.213 215.178H431.319V226.205H468.213V215.178Z" fill="#7D55FF"></path>
<path d="M468.213 158.281H431.319V169.308H468.213V158.281Z" fill="#7D55FF"></path>
<path d="M468.213 139.316H431.319V150.342H468.213V139.316Z" fill="#7D55FF"></path>
<path d="M387.44 330.256H353.372C351.944 330.256 350.785 329.098 350.785 327.669C350.785 326.24 361.506 322.943 362.935 322.943H384.766C386.195 322.943 390.027 326.24 390.027 327.669C390.027 329.098 388.868 330.256 387.44 330.256Z" fill="#B5CDFB"></path>
<path d="M385.263 325.082H361.052V320.935C361.052 315.019 365.848 310.223 371.764 310.223H377.316C381.705 310.223 385.263 313.781 385.263 318.17V325.082Z" fill="#B5CDFB"></path>
<path d="M359.934 333.887C361.923 333.887 363.535 332.275 363.535 330.286C363.535 328.297 361.923 326.685 359.934 326.685C357.945 326.685 356.333 328.297 356.333 330.286C356.333 332.275 357.945 333.887 359.934 333.887Z" fill="#B5CDFB"></path>
<path d="M381.165 333.887C383.154 333.887 384.766 332.275 384.766 330.286C384.766 328.297 383.154 326.685 381.165 326.685C379.176 326.685 377.564 328.297 377.564 330.286C377.564 332.275 379.176 333.887 381.165 333.887Z" fill="#B5CDFB"></path>
<path d="M389.262 316.885C394.655 316.885 399.027 312.513 399.027 307.12C399.027 301.727 394.655 297.355 389.262 297.355C383.869 297.355 379.497 301.727 379.497 307.12C379.497 312.513 383.869 316.885 389.262 316.885Z" fill="#7D55FF"></path>
<path d="M393.5 313.898H385.024C384.473 313.898 384.027 313.452 384.027 312.901C384.027 310.243 386.182 308.089 388.839 308.089H389.685C392.342 308.089 394.497 310.243 394.497 312.901C394.497 313.452 394.051 313.898 393.5 313.898Z" fill="#C4B6FF"></path>
<path d="M389.262 307.239C391.166 307.239 392.71 305.695 392.71 303.791C392.71 301.886 391.166 300.342 389.262 300.342C387.357 300.342 385.814 301.886 385.814 303.791C385.814 305.695 387.357 307.239 389.262 307.239Z" fill="#C4B6FF"></path>
<path d="M295.05 385.629C287.22 385.629 280.87 391.979 280.87 399.809C280.87 407.649 295.05 432.949 295.05 432.949C295.05 432.949 309.23 407.649 309.23 399.809C309.23 391.979 302.88 385.629 295.05 385.629ZM295.05 405.209C290.83 405.209 287.41 401.789 287.41 397.569C287.41 393.349 290.83 389.929 295.05 389.929C299.27 389.929 302.69 393.349 302.69 397.569C302.69 401.789 299.27 405.209 295.05 405.209Z" fill="#B5CDFB"></path>
<path d="M309.252 419.241C314.05 419.241 317.94 415.352 317.94 410.554C317.94 405.755 314.05 401.866 309.252 401.866C304.454 401.866 300.564 405.755 300.564 410.554C300.564 415.352 304.454 419.241 309.252 419.241Z" fill="#7D55FF"></path>
<path d="M313.023 416.584H305.481C304.991 416.584 304.594 416.187 304.594 415.697V415.697C304.594 413.332 306.511 411.416 308.876 411.416H309.628C311.993 411.416 313.91 413.332 313.91 415.697V415.697C313.91 416.187 313.513 416.584 313.023 416.584Z" fill="#C4B6FF"></path>
<path d="M309.252 410.659C310.946 410.659 312.32 409.286 312.32 407.591C312.32 405.897 310.946 404.523 309.252 404.523C307.558 404.523 306.184 405.897 306.184 407.591C306.184 409.286 307.558 410.659 309.252 410.659Z" fill="#C4B6FF"></path>
<path d="M350.97 138.471H346.375V145.823H350.97V138.471Z" fill="#C4B6FF"></path>
<path d="M357.02 138.471H352.425V145.823H357.02V138.471Z" fill="#C4B6FF"></path>
<path d="M350.97 150.16H346.375V157.512H350.97V150.16Z" fill="#C4B6FF"></path>
<path d="M357.02 150.16H352.425V157.512H357.02V150.16Z" fill="#C4B6FF"></path>
<path d="M364.247 150.16H359.652V157.512H364.247V150.16Z" fill="#C4B6FF"></path>
<path d="M370.296 150.16H365.702V157.512H370.296V150.16Z" fill="#C4B6FF"></path>
<path d="M364.247 138.471H359.652V145.823H364.247V138.471Z" fill="#C4B6FF"></path>
<path d="M370.296 138.471H365.702V145.823H370.296V138.471Z" fill="#C4B6FF"></path>
<path d="M397.457 138.471H392.862V145.823H397.457V138.471Z" fill="#C4B6FF"></path>
<path d="M403.506 138.471H398.912V145.823H403.506V138.471Z" fill="#C4B6FF"></path>
<path d="M397.457 150.16H392.862V157.512H397.457V150.16Z" fill="#C4B6FF"></path>
<path d="M403.506 150.16H398.912V157.512H403.506V150.16Z" fill="#C4B6FF"></path>
<path d="M410.733 150.16H406.139V157.512H410.733V150.16Z" fill="#C4B6FF"></path>
<path d="M416.783 150.16H412.188V157.512H416.783V150.16Z" fill="#C4B6FF"></path>
<path d="M410.733 138.471H406.139V145.823H410.733V138.471Z" fill="#C4B6FF"></path>
<path d="M416.783 138.471H412.188V145.823H416.783V138.471Z" fill="#C4B6FF"></path>
<path d="M386.449 511.829H424.234" stroke="#FFE458" stroke-width="0.891064" stroke-miterlimit="10" stroke-linecap="round"></path>
<path d="M427.94 511.829H455.873" stroke="#FFE458" stroke-width="0.891064" stroke-miterlimit="10" stroke-linecap="round"></path>
<path d="M456.064 329.737H425.666C424.391 329.737 423.357 329.384 423.357 328.109V325.629C423.357 324.354 433.108 321.605 434.383 321.605L453.678 323.212C454.953 323.212 457.296 323.372 457.296 324.647C457.296 324.647 457.339 329.737 456.064 329.737Z" fill="#B5CDFB"></path>
<path d="M452.272 325.12H434.368C433.346 325.12 432.518 324.292 432.518 323.27V323.27C437.145 317.442 443.527 315.51 443.927 315.508H445.18C450.118 315.508 454.121 315.865 454.121 320.803V323.27C454.121 324.292 453.293 325.12 452.272 325.12Z" fill="#B5CDFB"></path>
<path d="M431.521 332.977C433.295 332.977 434.734 331.538 434.734 329.764C434.734 327.989 433.295 326.55 431.521 326.55C429.746 326.55 428.307 327.989 428.307 329.764C428.307 331.538 429.746 332.977 431.521 332.977Z" fill="#B5CDFB"></path>
<path d="M451.167 332.977C452.941 332.977 454.38 331.538 454.38 329.764C454.38 327.989 452.941 326.55 451.167 326.55C449.392 326.55 447.953 327.989 447.953 329.764C447.953 331.538 449.392 332.977 451.167 332.977Z" fill="#B5CDFB"></path>
<path d="M136.126 379.186H195.605" stroke="#005B9D" stroke-miterlimit="10" stroke-linecap="round"></path>
<path d="M130.298 379.186H121.036" stroke="#005B9D" stroke-miterlimit="10" stroke-linecap="round"></path>
<path d="M114.979 379.25H50.0638" stroke="#005B9D" stroke-miterlimit="10" stroke-linecap="round"></path>
<path d="M276.85 200.039C265.81 200.039 256.86 208.989 256.86 220.039C256.86 231.079 276.85 266.749 276.85 266.749C276.85 266.749 296.84 231.079 296.84 220.039C296.84 208.989 287.89 200.039 276.85 200.039ZM276.85 227.639C270.9 227.639 266.08 222.819 266.08 216.869C266.08 210.919 270.9 206.099 276.85 206.099C282.8 206.099 287.62 210.919 287.62 216.869C287.62 222.819 282.8 227.639 276.85 227.639Z" fill="#B5CDFB"></path>
<path d="M298.688 245.456C304.935 245.456 310 240.391 310 234.144C310 227.897 304.935 222.833 298.688 222.833C292.441 222.833 287.377 227.897 287.377 234.144C287.377 240.391 292.441 245.456 298.688 245.456Z" fill="#7D55FF"></path>
<path d="M303.598 241.996H293.779C293.141 241.996 292.624 241.479 292.624 240.841V240.841C292.624 237.762 295.12 235.267 298.199 235.267H299.178C302.256 235.267 304.752 237.762 304.752 240.841V240.841C304.752 241.479 304.235 241.996 303.598 241.996Z" fill="#C4B6FF"></path>
<path d="M298.688 234.282C300.894 234.282 302.683 232.494 302.683 230.287C302.683 228.081 300.894 226.293 298.688 226.293C296.482 226.293 294.694 228.081 294.694 230.287C294.694 232.494 296.482 234.282 298.688 234.282Z" fill="#C4B6FF"></path>
<path d="M373.665 268.284C368.245 268.284 363.865 272.674 363.865 278.084C363.865 283.494 373.665 300.974 373.665 300.974C373.665 300.974 383.455 283.494 383.455 278.084C383.455 272.674 379.075 268.284 373.665 268.284ZM373.665 281.804C370.745 281.804 368.385 279.444 368.385 276.524C368.385 273.614 370.745 271.254 373.665 271.254C376.575 271.254 378.935 273.614 378.935 276.524C378.935 279.444 376.575 281.804 373.665 281.804Z" fill="#B5CDFB"></path>
</svg>
