<svg width="200" height="150" viewBox="0 0 800 600" fill="none" xmlns="http://www.w3.org/2000/svg" data-reactroot="">
<path opacity="0.3" d="M718.701 154.976C718.701 259.074 477.651 520.303 373.552 520.303C269.454 520.303 36.8994 366.336 36.8994 262.238C36.8994 158.139 186.262 63.1813 296.899 46.4208C407.536 29.6604 718.701 50.8774 718.701 154.976Z" fill="#7D55FF"></path>
<g opacity="0.2">
<path d="M48.334 348.785H285.159V375.335H48.334V348.785Z" fill="#C4B6FF"></path>
<path d="M48.334 391.335H285.159V417.885H48.334V391.335Z" fill="#C4B6FF"></path>
<path d="M48.334 433.885H285.159V460.435H48.334V433.885Z" fill="#C4B6FF"></path>
<path d="M53.6582 482.438H91.5229V520.303H53.6582V482.438Z" fill="#C4B6FF"></path>
<path d="M115.523 482.438H153.388V520.303H115.523V482.438Z" fill="#C4B6FF"></path>
<path d="M177.388 482.438H215.252V520.303H177.388V482.438Z" fill="#C4B6FF"></path>
<path d="M239.252 482.438H277.117V520.303H239.252V482.438Z" fill="#C4B6FF"></path>
</g>
<path opacity="0.2" d="M277.117 194.406H736.216V220.956H277.117V194.406Z" fill="#C4B6FF"></path>
<path fill-rule="evenodd" clip-rule="evenodd" d="M432.744 364.722C432.878 364.48 433.182 364.393 433.424 364.526C491.904 396.831 539.848 399.73 585.838 395.835C599.523 394.676 613.01 392.919 626.558 391.154C635.812 389.948 645.095 388.739 654.489 387.714C677.607 385.191 701.319 383.798 726.68 386.375C726.954 386.403 727.154 386.649 727.126 386.923C727.099 387.198 726.853 387.398 726.578 387.37C701.316 384.803 677.683 386.189 654.597 388.708C645.252 389.728 635.983 390.935 626.731 392.14C613.156 393.909 599.616 395.672 585.923 396.832C539.796 400.738 491.64 397.828 432.94 365.402C432.698 365.268 432.611 364.964 432.744 364.722Z" fill="#C4B6FF"></path>
<path opacity="0.2" d="M499.391 244.956H736.216V271.506H499.391V244.956Z" fill="#C4B6FF"></path>
<path opacity="0.2" d="M462.859 295.506H736.216V322.056H462.859V295.506Z" fill="#C4B6FF"></path>
<path fill-rule="evenodd" clip-rule="evenodd" d="M728.388 93.4058C717.379 87.9296 704.177 84.9397 695.382 83.8688L695.502 82.8761C704.373 83.956 717.693 86.9688 728.833 92.5104C739.944 98.0375 749.072 106.179 749.163 117.585C749.343 139.856 744.799 158.298 742.491 164.767L741.549 164.431C743.819 158.069 748.342 139.744 748.163 117.593C748.076 106.788 739.426 98.8964 728.388 93.4058Z" fill="#C4B6FF"></path>
<path fill-rule="evenodd" clip-rule="evenodd" d="M182.914 47.6214C122.338 75.527 82.2524 114.262 69.8078 130.101L69.0215 129.483C81.5631 113.521 121.774 74.6857 182.495 46.7131L182.914 47.6214Z" fill="#C4B6FF"></path>
<circle cx="626.715" cy="148.473" r="52.1578" transform="rotate(-3.39849 626.715 148.473)" fill="#C4B6FF"></circle>
<rect x="139.66" y="129.818" width="62.6287" height="62.6287" transform="rotate(-20.0856 139.66 129.818)" fill="#C4B6FF"></rect>
<rect x="139.66" y="129.818" width="62.6287" height="62.6287" transform="rotate(-20.0856 139.66 129.818)" fill="black" fill-opacity="0.21"></rect>
<path d="M363.344 290.953L373.46 326.003C377.72 332.782 377.01 300.265 377.72 288.994L363.344 290.953Z" fill="#B5CDFB"></path>
<path d="M479.007 279.64L468.736 326.679C467.545 301.373 471.713 303.159 463.823 284.403L479.007 279.64Z" fill="#B5CDFB"></path>
<path d="M108.668 248.751C105.476 256.854 119.527 308.158 129.958 322.243C133.656 319.396 160.716 315.079 164.697 306.241C169.673 295.194 161.746 242.994 160.621 236.449C159.497 229.904 145.553 260.484 145.553 260.484C145.553 260.484 143.519 222.402 140.629 215.494C139.304 212.327 115.27 231.991 108.668 248.751Z" fill="#7D55FF"></path>
<path d="M117.14 262.364C114.809 252.954 112.965 244.565 111.738 236.749" stroke="#005B9D" stroke-width="1.78145" stroke-linecap="round"></path>
<path d="M124.996 257.332C123.905 252.451 119.814 232.786 119.01 227.287" stroke="#005B9D" stroke-width="1.78145" stroke-linecap="round"></path>
<path d="M134.486 253.361C132.541 243.45 129.465 223.718 128.872 217.081" stroke="#005B9D" stroke-width="1.78145" stroke-linecap="round"></path>
<path d="M670.827 274.689C677.062 280.77 685.293 333.323 681.558 350.447C677.018 349.368 650.568 356.53 643.312 350.103C634.243 342.07 621.609 302.256 620.094 296.388C618.435 289.958 642.002 300.52 642.002 300.52C642.002 300.52 628.235 264.955 628.037 257.47C627.947 254.038 657.932 262.113 670.827 274.689Z" fill="#7D55FF"></path>
<path d="M668.685 290.58C666.951 281.041 665.192 272.634 663.105 265.003" stroke="#005B9D" stroke-width="1.78145" stroke-linecap="round"></path>
<path d="M659.457 289.213C658.45 284.314 654.114 264.701 652.592 259.357" stroke="#005B9D" stroke-width="1.78145" stroke-linecap="round"></path>
<path d="M649.174 289.485C646.882 279.648 641.592 260.391 639.411 254.094" stroke="#005B9D" stroke-width="1.78145" stroke-linecap="round"></path>
<path fill-rule="evenodd" clip-rule="evenodd" d="M287.724 399.453C340.743 418.514 395.255 419.111 412.532 416.453C453.269 410.185 482.96 415.387 510.005 420.125C514.144 420.85 518.221 421.564 522.266 422.225C549.46 426.666 582.007 430.365 636.994 422.94C637.088 420.847 637.109 418.45 637.038 415.738C636.519 396.133 631.425 368.661 623.968 340.04L696.371 321.174C704.297 351.591 711.087 385.584 711.832 413.758C712.195 427.465 711.272 443.302 706.038 457.436C700.401 472.656 687.355 490.872 662.701 494.781C589.933 506.317 546.104 501.93 510.207 496.067C505.259 495.259 500.634 494.465 496.246 493.712C469.732 489.161 451.89 486.099 423.909 490.403C394.137 494.984 327.019 493.09 262.411 469.861C196.888 446.304 126.402 397.645 107.272 303.972L180.58 289.001C192.484 347.289 235.62 380.72 287.724 399.453Z" fill="#C4B6FF"></path>
<path d="M291.631 447.031L576.247 464.764C576.247 464.764 577.718 517.189 552.23 553.297C526.742 589.405 383.443 573.808 345.444 567.808C307.444 561.808 305.586 532.783 291.631 447.031Z" fill="#C4B6FF"></path>
<path d="M361.749 172.552C362.025 172.542 362.24 172.31 362.23 172.034C362.22 171.758 361.988 171.543 361.712 171.553L361.749 172.552ZM279.657 187.337C293.14 182.929 328.451 173.797 361.749 172.552L361.712 171.553C328.291 172.802 292.884 181.961 279.347 186.386L279.657 187.337Z" fill="#C4B6FF"></path>
<path fill-rule="evenodd" clip-rule="evenodd" d="M420.855 525.296C466.927 528.911 504.245 524.111 554.026 502.867C556.431 501.841 559.228 502.337 561.106 504.156C508.5 527.217 467.021 534.385 428.31 532.335C389.665 530.289 353.609 519.041 342.69 513.282C341.469 512.638 341.001 511.126 341.645 509.905C342.289 508.683 343.802 508.215 345.023 508.86C355.148 514.2 382.736 523.278 420.855 525.296Z" fill="#7D55FF"></path>
<path fill-rule="evenodd" clip-rule="evenodd" d="M371.402 472.723C416.1 484.46 453.677 486.362 506.44 474.294C508.988 473.711 511.653 474.695 513.178 476.819C457.314 490.174 415.221 489.863 377.488 480.974C339.821 472.099 306.335 454.629 296.612 447.022C295.525 446.172 295.333 444.6 296.183 443.513C297.034 442.425 298.605 442.233 299.693 443.084C308.709 450.137 334.247 463.969 371.402 472.723Z" fill="#7D55FF"></path>
<path d="M585.886 445.139C582.583 446.184 579.378 445.366 578.729 443.312C578.079 441.258 579.396 439.664 582.699 438.619C586.002 437.574 590.349 436.639 590.999 438.693C591.649 440.747 589.19 444.094 585.886 445.139Z" fill="black" fill-opacity="0.42"></path>
<path d="M200.542 388.124C201.937 391.296 206.96 398.301 203.788 399.696C200.617 401.09 191.802 396.924 190.407 393.753C189.012 390.581 184.777 382.123 187.949 380.728C191.12 379.333 199.147 384.952 200.542 388.124Z" fill="black" fill-opacity="0.42"></path>
<path d="M375.301 541.586C375.301 545.051 372.492 546.296 369.027 546.296C365.563 546.296 362.754 545.051 362.754 541.586C362.754 538.122 365.563 535.313 369.027 535.313C372.492 535.313 375.301 538.122 375.301 541.586Z" fill="black" fill-opacity="0.42"></path>
<rect x="360.552" y="63.1505" width="78.8964" height="78.8964" rx="32.066" fill="#C4B6FF"></rect>
<rect x="360.552" y="63.1504" width="78.8964" height="78.8964" rx="32.066" fill="white" fill-opacity="0.22"></rect>
<path d="M136.319 271.79C136.319 271.79 132.164 275.899 120.085 281.839C96.4584 293.459 63.9036 283.177 64.1866 256.848C64.5226 225.599 92.5906 196.561 136.319 172.667C212.262 131.169 282.653 104.495 399.141 101.485C599.666 96.3043 679.184 178.718 739.386 238.013C777.475 275.527 761.957 309.858 634.056 290.358" stroke="#FFE458" stroke-width="3.56289" stroke-dasharray="4.45 8.02"></path>
<rect x="393.113" y="95.7119" width="13.7735" height="13.7735" fill="#7D55FF"></rect>
<rect x="622.654" y="139.066" width="13.7735" height="13.7735" transform="rotate(30 622.654 139.066)" fill="#7D55FF"></rect>
<path d="M145.501 270.518C145.501 276.145 140.939 280.707 135.312 280.707C129.685 280.707 125.123 276.145 125.123 270.518C125.123 264.891 129.685 260.329 135.312 260.329C140.939 260.329 145.501 264.891 145.501 270.518Z" fill="#B5CDFB"></path>
<circle cx="632.843" cy="287.637" r="10.1888" fill="#B5CDFB"></circle>
<path d="M395.846 419.615C402.826 398.979 394.629 388.43 391.117 358.646C406.107 349.63 447.826 335.764 451.058 364.763C454.587 396.419 462.928 406.51 458.328 426.458C453.044 449.368 383.603 455.811 395.846 419.615Z" fill="#D08E0D"></path>
<ellipse cx="374.306" cy="340.291" rx="8.59504" ry="16.8937" transform="rotate(-16.1927 374.306 340.291)" fill="#D08E0D"></ellipse>
<path fill-rule="evenodd" clip-rule="evenodd" d="M377.66 356.692C375.586 351.702 374.254 345.123 372.975 338.799C371.868 333.329 370.8 328.051 369.323 324.156C369.413 324.123 369.503 324.094 369.595 324.067C370.733 323.737 371.949 323.875 373.173 324.407L377.215 327.57C377.865 328.313 378.493 329.155 379.088 330.083L383.39 350.48C382.705 353.633 381.203 355.88 379.017 356.514C378.575 356.643 378.122 356.7 377.66 356.692Z" fill="#B87B05"></path>
<ellipse rx="8.59504" ry="16.8937" transform="matrix(-0.960329 -0.278868 -0.278868 0.960329 467.602 340.291)" fill="#D08E0D"></ellipse>
<path d="M397.035 390.544C396.589 388.275 396.072 385.919 395.525 383.419C395.054 381.269 394.56 379.013 394.066 376.616C398.713 377.841 404.276 381.172 409.893 384.535C417.831 389.288 425.875 394.106 431.592 393.133C431.115 393.325 430.584 393.56 430 393.818C424.252 396.36 413.34 401.185 397.035 390.544Z" fill="#B87B05"></path>
<path d="M418.534 285.57C395.327 285.57 369.407 263.325 369.407 288.598C372.079 311.099 377.137 359.433 380.282 364.938C383.428 370.442 395.771 380.388 401.014 385.652C408.056 390.967 416.638 393.842 425.46 393.842C432.93 393.842 439.325 391.305 446.515 386.607C455.55 380.704 459.501 371.634 462.351 365.091L462.418 364.938C467.02 354.374 465.776 345.542 468.311 328.613C468.311 315.737 474.309 288.001 465.253 283.179C456.533 278.537 429.917 285.57 418.534 285.57Z" fill="#F5B73C"></path>
<path d="M415.891 370.561C415.519 370.16 414.891 370.136 414.49 370.508C414.088 370.881 414.065 371.508 414.437 371.91L415.891 370.561ZM431.862 371.534C432.267 371.165 432.297 370.538 431.929 370.133C431.56 369.727 430.933 369.697 430.528 370.066L431.862 371.534ZM414.437 371.91C416.744 374.398 419.952 375.368 423.121 375.193C426.282 375.018 429.472 373.705 431.862 371.534L430.528 370.066C428.479 371.928 425.722 373.063 423.012 373.213C420.31 373.362 417.721 372.534 415.891 370.561L414.437 371.91Z" fill="#D08E0D"></path>
<path d="M396.137 316.954H405.832L383.926 344.966L378.13 338.287L396.137 316.954Z" fill="white" fill-opacity="0.392"></path>
<path d="M409.663 325.909L412.217 328.562L393.66 351.443L390.114 348.896L409.663 325.909Z" fill="white" fill-opacity="0.392"></path>
<path d="M447.323 315.637L455.773 318.244L434.406 344.773L429.315 336.97L447.323 315.637Z" fill="white" fill-opacity="0.392"></path>
<path d="M460.848 324.593L463.402 327.245L444.845 350.126L441.3 347.579L460.848 324.593Z" fill="white" fill-opacity="0.392"></path>
<circle cx="395.608" cy="332.882" r="17.4297" stroke="#005B9D" stroke-width="3.96646"></circle>
<circle cx="446.398" cy="332.882" r="17.4297" stroke="#005B9D" stroke-width="3.96646"></circle>
<path d="M429.049 352.438L421.214 331.182L414.543 352.438C414.543 352.438 417.39 355.742 421.912 355.618C426.435 355.495 429.049 352.438 429.049 352.438Z" fill="#D08E0D"></path>
<path d="M465.584 309.221C466.257 310.427 465.824 311.95 464.619 312.622C463.413 313.295 461.89 312.862 461.218 311.657L465.584 309.221ZM441.41 306.342C440.136 306.875 438.672 306.275 438.139 305.001C437.606 303.727 438.206 302.263 439.48 301.73L441.41 306.342ZM461.218 311.657C460.243 309.91 458.033 307.399 454.718 305.926C451.497 304.495 447.078 303.97 441.41 306.342L439.48 301.73C446.385 298.84 452.237 299.353 456.748 301.357C461.164 303.319 464.145 306.641 465.584 309.221L461.218 311.657Z" fill="#FBFBF6"></path>
<rect x="170.951" y="144.352" width="13.8357" height="13.8357" transform="rotate(-20.0856 170.951 144.352)" fill="#7D55FF"></rect>
<path d="M468.515 324.897C468.188 325.301 466.061 298.328 464.535 286.984L466.823 284.198C467.818 284.198 469.431 289.511 470.306 293.651C471.4 298.825 469.315 323.912 468.515 324.897Z" fill="#9C9238"></path>
<path d="M375.185 326.782C377.612 325.526 377.678 304.561 377.275 293.011C376.483 294.683 372.251 295.981 370.234 296.421L373.796 326.782C373.796 326.782 374.361 327.208 375.185 326.782Z" fill="#9C9238"></path>
<path d="M418.181 240.969C395.961 260.073 363.364 259.117 363.364 259.117C353.9 262.93 349.318 273.693 353.131 283.158C356.944 292.623 366.74 304.109 377.172 293.392C415.418 296.828 499 295.188 489.558 259.117C477.756 214.027 440.402 221.865 418.181 240.969Z" fill="#B5CDFB"></path>
<path d="M374.446 313.28C373.949 314.267 374.347 315.469 375.334 315.966C376.32 316.462 377.523 316.064 378.019 315.078L374.446 313.28ZM402.796 306.8C403.881 307.005 404.928 306.293 405.134 305.207C405.339 304.122 404.627 303.075 403.541 302.87L402.796 306.8ZM378.019 315.078C379.826 311.486 387.424 303.885 402.796 306.8L403.541 302.87C386.433 299.626 377.063 308.077 374.446 313.28L378.019 315.078Z" fill="#FBFBF6"></path>
</svg>
